# xmcd
#
# Track frame offsets: 
#        150
#        16650
#        36018
#        52836
#        68520
#        85620
#        105382
#        125482
#        141658
#        162358
#        183208
#        201958
#        217070
#        232041
#        245953
#        261103
#
# Disc length: 3811 seconds
#
# Revision: 0
# Processed by: cddbd v1.5.2PL0 Copyright (c) Steve Scherf et al.
# Submitted via: ExactAudioCopy v1.0b1
#
DISCID=de0ee110
DTITLE=Wench, The - Live at the Yellowstone Valley Brewing Co.
DYEAR=2010
DGENRE=Country
TTITLE0=Potion
TTITLE1=Sex On The Radio
TTITLE2=Little Miss Perfect
TTITLE3=Star
TTITLE4=Out Of Her Mind
TTITLE5=This Is Perfect
TTITLE6=Jesus, If You Get Me Outta This
TTITLE7=Day Job
TTITLE8=Senior Kegger
TTITLE9=Odds Are 3 To 1
TTITLE10=Excuse To Jam
TTITLE11=Real Man
TTITLE12=Stone Outside Of Reno
TTITLE13=Alright Tonight
TTITLE14=Blowin' Smoke
TTITLE15=She's A Chimney
EXTD=
EXTT0=
EXTT1=
EXTT2=
EXTT3=
EXTT4=
EXTT5=
EXTT6=
EXTT7=
EXTT8=
EXTT9=
EXTT10=
EXTT11=
EXTT12=
EXTT13=
EXTT14=
EXTT15=
PLAYORDER=
